<mxfile host="65bd71144e">
    <diagram id="mEzSfYppKcivNNCRlda4" name="Página-1">
        <mxGraphModel dx="592" dy="357" grid="1" gridSize="10" guides="1" tooltips="1" connect="1" arrows="1" fold="1" page="1" pageScale="1" pageWidth="827" pageHeight="1169" math="0" shadow="0">
            <root>
                <mxCell id="0"/>
                <mxCell id="1" parent="0"/>
                <mxCell id="2" value="" style="rounded=0;whiteSpace=wrap;html=1;" vertex="1" parent="1">
                    <mxGeometry x="110" width="380" height="360" as="geometry"/>
                </mxCell>
                <mxCell id="3" value="Combinados.net" style="text;html=1;strokeColor=none;fillColor=none;align=center;verticalAlign=middle;whiteSpace=wrap;rounded=0;" vertex="1" parent="1">
                    <mxGeometry x="280" y="10" width="60" height="30" as="geometry"/>
                </mxCell>
                <mxCell id="4" value="Usuário" style="shape=umlActor;verticalLabelPosition=bottom;verticalAlign=top;html=1;outlineConnect=0;" vertex="1" parent="1">
                    <mxGeometry x="30" y="130" width="30" height="60" as="geometry"/>
                </mxCell>
                <mxCell id="9" value="logar no sistema" style="ellipse;whiteSpace=wrap;html=1;" vertex="1" parent="1">
                    <mxGeometry x="150" y="50" width="140" height="50" as="geometry"/>
                </mxCell>
                <mxCell id="10" value="" style="endArrow=none;html=1;entryX=0;entryY=1;entryDx=0;entryDy=0;" edge="1" parent="1" source="4" target="9">
                    <mxGeometry width="50" height="50" relative="1" as="geometry">
                        <mxPoint x="280" y="210" as="sourcePoint"/>
                        <mxPoint x="330" y="160" as="targetPoint"/>
                    </mxGeometry>
                </mxCell>
                <mxCell id="12" value="criar um evento" style="ellipse;whiteSpace=wrap;html=1;" vertex="1" parent="1">
                    <mxGeometry x="320" y="150" width="140" height="50" as="geometry"/>
                </mxCell>
                <mxCell id="16" value="compartilhar um evento" style="ellipse;whiteSpace=wrap;html=1;" vertex="1" parent="1">
                    <mxGeometry x="140" y="290" width="140" height="50" as="geometry"/>
                </mxCell>
                <mxCell id="19" value="" style="endArrow=classic;html=1;entryX=0.31;entryY=1.094;entryDx=0;entryDy=0;entryPerimeter=0;exitX=0.767;exitY=0.039;exitDx=0;exitDy=0;exitPerimeter=0;" edge="1" parent="1" source="16" target="12">
                    <mxGeometry relative="1" as="geometry">
                        <mxPoint x="310" y="260" as="sourcePoint"/>
                        <mxPoint x="250" y="180" as="targetPoint"/>
                        <Array as="points">
                            <mxPoint x="350" y="290"/>
                        </Array>
                    </mxGeometry>
                </mxCell>
                <mxCell id="20" value="extende" style="edgeLabel;resizable=0;html=1;align=center;verticalAlign=middle;" connectable="0" vertex="1" parent="19">
                    <mxGeometry relative="1" as="geometry">
                        <mxPoint x="11" y="3" as="offset"/>
                    </mxGeometry>
                </mxCell>
                <mxCell id="27" value="inclui" style="endArrow=classic;html=1;exitX=0.714;exitY=1;exitDx=0;exitDy=0;exitPerimeter=0;entryX=0.305;entryY=0.06;entryDx=0;entryDy=0;entryPerimeter=0;" edge="1" parent="1" source="9" target="12">
                    <mxGeometry relative="1" as="geometry">
                        <mxPoint x="140" y="190" as="sourcePoint"/>
                        <mxPoint x="300" y="190" as="targetPoint"/>
                    </mxGeometry>
                </mxCell>
            </root>
        </mxGraphModel>
    </diagram>
</mxfile>